<svg xmlns="http://www.w3.org/2000/svg" viewBox="0 0 1184 360" height="360" width="1184">
    <g data-name="Layer 7">
        <path d="M1184.05 188.65V360H.05V42.32h221.06a94.27 94.27 0 0 1 66.69 27.62l11.05 11a55.37 55.37 0 0 0 31.08 15.64l1.36.19a55.46 55.46 0 0 0 6.84.42h454.32a94.37 94.37 0 0 1 66.71 27.63l11 11a55.5 55.5 0 0 0 39.25 16.25h238.11a36.5 36.5 0 0 1 36.53 36.58z" fill="#ffd7e4"/>
        <path d="M241.17 136.36v.3a27.35 27.35 0 0 1-54.69 0v-.3a27.35 27.35 0 0 1 54.69 0z" fill="#fff"/>
        <path d="M1184.05 286.36v51.74H.05v-51.74H0v-86.43h112.15a53.39 53.39 0 0 1 37.63 15.5l32.16 32h118.25a24.07 24.07 0 0 1 17 7l32.16 32z" fill="#47b274"/>
        <path fill="#47b274" d="M192.34 226.75h42.97v47.88h-42.97zM-.05 136.66h42.97v79.92H-.05zm42.98 34.53h63.16v78.54H42.93z"/>
        <circle cx="74.51" cy="178.47" r="26.32" fill="#47b274"/>
        <path d="M1184.05 253.29V360H801.53v-21.89h74a58 58 0 0 0 40.88-16.87l51.82-51.53a56.57 56.57 0 0 1 39.89-16.42zm-31.75-53.36h31.75v53.35h-31.75z"/>
        <path d="M1040.71 226.75h83.78v32.3h-83.78zM42.33 338.11h26.9l-6.29-47.92-7.16-54.63-13.45 102.55z"/>
        <path d="M52.91 338.11h34.07l-17.03-81.37-7.01 33.45-10.03 47.92z"/>
        <path d="M216.39 338.11h166.18V360H.05v-88.89H16a36.13 36.13 0 0 1 25.54 10.58l8.14 8.15h63a64.42 64.42 0 0 1 45.6 18.89l9 9a69.46 69.46 0 0 0 49.11 20.38z"/>
        <circle cx="85.66" cy="298.48" r="14.78"/>
        <path d="M801.53 325.85V360h-419v-34.15a60 60 0 0 1 9-31.55l64.58-104.48a47.38 47.38 0 0 1 40.29-22.46h191.29A47.36 47.36 0 0 1 728 189.82l64.56 104.48a60 60 0 0 1 8.97 31.55z" fill="#fff"/>
        <path d="M420.2 226.75H389a6.47 6.47 0 0 0-6.26 8.11 25.34 25.34 0 0 0 24.51 18.94H428l3.1-13.29a11.22 11.22 0 0 0-10.9-13.76zm343.69 0H795a6.48 6.48 0 0 1 6.27 8.11 25.34 25.34 0 0 1-24.47 18.94h-20.73L753 240.51a11.22 11.22 0 0 1 10.89-13.76z" fill="#fff"/>
        <path d="M720 194.77a37.73 37.73 0 0 0-32.29-18H496.4a37.73 37.73 0 0 0-32.29 18l-29.5 47.73a7.41 7.41 0 0 0 6.3 11.3h302.27a7.41 7.41 0 0 0 6.3-11.3z" fill="#276ef1"/>
        <path fill="#9cc0ff" d="M441.83 286.36h300.63v19.99H441.83z"/>
        <path d="M471.41 306.35h-12.28a12.89 12.89 0 0 0-11.73 7.56l-6.2 13.66a17.92 17.92 0 0 1-16.33 10.53h-42.3v-12.25a60 60 0 0 1 9-31.54l4.9-7.95h48.85a14.85 14.85 0 0 1 10.49 4.35z" fill="#ffd7e4"/>
        <path d="M712.69 306.35l-47.41 47.41a21.31 21.31 0 0 1-15.06 6.24H533.87a21.3 21.3 0 0 1-15-6.24l-47.41-47.41z" fill="#c6daff"/>
        <rect x="543.62" y="313.6" width="96.85" height="46.4" rx="6.36" fill="#276ef1"/>
        <path d="M712.68 306.35H725a12.88 12.88 0 0 1 11.73 7.56l6.2 13.66a17.93 17.93 0 0 0 16.34 10.53h42.29v-12.25a60 60 0 0 0-9-31.54l-4.9-7.95h-48.85a14.87 14.87 0 0 0-10.49 4.35z" fill="#ffd7e4"/>
        <path d="M665.06 200.91v9.64l7.54.42v-10.06h-7.54z"/>
        <path d="M659.86 223.19l2.49-3.88a3.94 3.94 0 0 0 .33-3.62 3.62 3.62 0 0 1 .28-3.29l4-6.33a19.55 19.55 0 1 1 30.36 24.27l-2.32 2.22a5.31 5.31 0 0 0-1 6l2.78 5.79h-24.46l-2.24-4.68h-4.91a3.22 3.22 0 0 1-3.21-3.2v-3.57a1.29 1.29 0 0 0-.13-.58l-.4-.87a.9.9 0 0 1 .43-1.21l.88-.43-1-.83a1.09 1.09 0 0 1-.25-1.42l.87-1.41-1.38-.3a1.79 1.79 0 0 1-1.12-2.66z"/>
        <path d="M690.43 197S701 201.7 701 207.52l3.37 2.62a8.23 8.23 0 0 1 .77 12.33L695 232.56h-2.64a6 6 0 0 1-6-6V220h-4.55a5.22 5.22 0 0 1-5.22-5.22V213a5 5 0 0 0-1.45-3.5 4.94 4.94 0 0 1-1.44-3.49v-1.76h-5.56z"/>
        <path d="M682.46 226.47h-.61v-8.48a4.55 4.55 0 0 1 4.55-4.55 4.55 4.55 0 0 1 4.55 4.55 8.48 8.48 0 0 1-8.49 8.48zm-10.14 17.92h24.45L694 238.6h-8.1a18.81 18.81 0 0 0-13.58 5.79zm-7.16-44.7a7.14 7.14 0 0 0 .74 4.58h2.27l13.12.06 23.18 8.44v-6.36a12.61 12.61 0 0 0-15.68-12.24l-7.89 1.92a5.49 5.49 0 0 1-4.51-1 7.14 7.14 0 0 0-11.23 4.57zm36.1 54.11l-4.49-9.41h-24.45l-15.96 9.41h44.9z"/>
        <path d="M668.83 253.8l4.5-9.41h24.44l15.97 9.41h-44.91zm-198.27 0h15.18v-28.39a13.35 13.35 0 0 1-6 11.16 20.22 20.22 0 0 0-9.15 16.93zm36.09-33.63v28.16h16.4l-1.29-1.91a14.75 14.75 0 0 1-1.37-13.89l5.69-13.67zm-17.01-3.74L489 216a3.09 3.09 0 0 0-4.54 1.31 3.11 3.11 0 0 0 .52 3.32l6.1 6.85a3.16 3.16 0 0 0 2.81 1z"/>
        <path d="M506.64 220.17v28.16h-16.4l1.29-1.91a14.75 14.75 0 0 0 1.37-13.89l-5.69-13.67zm17.01-3.74l.62-.41a3.1 3.1 0 0 1 4.55 1.31 3.11 3.11 0 0 1-.52 3.32l-6.1 6.85a3.17 3.17 0 0 1-2.81 1z"/>
        <path d="M527.54 210.64a20.81 20.81 0 0 1-2.54 10.54c-.14.25-.28.5-.43.75l-9.15 15.19-5.73-1.46a12.27 12.27 0 0 0-6.08 0l-5.71 1.46-9.16-15.19c-.15-.25-.29-.49-.43-.75a20.9 20.9 0 0 1 18.94-30.92 21 21 0 0 1 20.29 20.38zm6.17 42.96h-54.14l3.64-3.75 3.52-3.63a7.16 7.16 0 0 1 5.13-2.19h29.57a7.2 7.2 0 0 1 5.14 2.19l3.51 3.63z"/>
        <path d="M521.69 226.69l-6.28 10.43-5.72-1.46a12.31 12.31 0 0 0-6.09 0l-5.71 1.46-6.28-10.43zm12.02 26.91h-54.14l3.64-3.75h46.87l3.63 3.75z"/>
        <path d="M485.82 209.31h41.72v26.8a12.22 12.22 0 0 1-12.22 12.22h-29.5v-39.02zM610 202.74l.93.92a12.07 12.07 0 0 1 3.64 8.65v3.4a3.22 3.22 0 0 0 .46 1.66l4 6.58a1.3 1.3 0 0 1-.46 1.8l-2.69 1.55.61.86a1.44 1.44 0 0 1 0 1.69l-.68.88.2.51a1.75 1.75 0 0 1-.66 2.09l.93 1.59a3.81 3.81 0 0 1 .4 2.84 3.78 3.78 0 0 1-3.66 2.84h-6.68a1.3 1.3 0 0 0-1.3 1.17l-.8 8.51L582.63 239l2.62-35.51a1.3 1.3 0 0 1 1.29-1.14h22.54a1.33 1.33 0 0 1 .92.39z"/>
        <path d="M599.96 216.15h17.05v1.62h-17.05z"/>
        <path d="M618.47 213.742l-2.96 8.563-1.616-.558 2.959-8.564zm-52.01 40.038H608v-.3a5.4 5.4 0 0 0-3.21-4.44l-22.1-10a18.8 18.8 0 0 1-10.5 12.24zm40.18-56.13a11 11 0 0 1 4.68 13.35 8.11 8.11 0 0 1-5.13 4.84l-9.45 3-1.12-2a3.92 3.92 0 0 0-3.47-2 3.93 3.93 0 0 0-3.75 3 7.21 7.21 0 0 0 2.16 6.94l1.61 1.46-.61 2.43a14.93 14.93 0 0 1-8.93 10.33h-7a8.51 8.51 0 0 1-8.48-9.19l1.69-20.76a17.72 17.72 0 0 1 17.66-16.28h2.39a34.79 34.79 0 0 1 17.75 4.88z"/>
    </g>
</svg>
