<svg xmlns="http://www.w3.org/2000/svg" viewBox="0 0 1456 821" height="821" width="1456">
    <g data-name="Layer 7">
        <path d="M943.33 277.33v265.78H1342v277.33H577.45a88.09 88.09 0 0 1-57-25.65l-54.42-54.42-53.45 53.46a411 411 0 0 1-144.4-93.54q-7.79-7.78-15.13-16a408.75 408.75 0 0 1-105-274.11C148.07 183.66 331.72 0 558.28 0h639.77a144 144 0 0 1 144 144v58h-252.51a39.37 39.37 0 0 0-39.38 39.37v36z" fill="#ffd7e4"/>
        <path d="M845.14 277.32v278.77h-222V316.7a39.37 39.37 0 0 1 39.37-39.38zm-120.2-75.38h84.04v75.38h-84.04z" fill="#fff"/>
        <path d="M1342 345.32V821H710.38v-.4H582.79c-1.79 0-3.57-.06-5.34-.16a88.09 88.09 0 0 1-57-25.65l-54.42-54.42L385.44 821H113.81l139.27-136.68 68.51-67.24A222.43 222.43 0 0 1 479 553.43l183.89 1.35a97.63 97.63 0 0 0 69-27.9l122.87-120.53a222.51 222.51 0 0 1 157.94-63.65z" fill="#47b274"/>
        <path d="M710.38 792.06v28.54H582.79a88.07 88.07 0 0 1-62.31-25.81l-54.42-54.42 70.55 44.7v7z" fill="#fff"/>
        <path d="M845.41 820.6H582.79a88.07 88.07 0 0 1-62.31-25.81l-54.42-54.42h279.28a47.9 47.9 0 0 1 33.86 14z" fill="#ffd7e4"/>
        <path d="M1342 556.2V821H645l199.67-199.64A222.44 222.44 0 0 1 1002 556.2z"/>
        <path d="M1101.44 556.2h-58.78l25.1-91.24a4.45 4.45 0 0 1 8.58 0zm114.22 0h-58.78L1182 465a4.45 4.45 0 0 1 8.59 0z"/>
    </g>
</svg>
