<svg xmlns="http://www.w3.org/2000/svg" viewBox="0 0 1456 821" height="821" width="1456">
    <defs>
        <clipPath id="a">
            <path d="M1178.73-847.85l87 186.66c53.28 114.31-30.16 245.27-156.27 245.27H371.55c-139.76 0-221.44-157.56-140.9-271.78l41.19-58.42A58.92 58.92 0 0 0 277.1-805l-87-186.67c-53.28-114.31 30.16-245.27 156.27-245.27h737.93c139.76 0 221.45 157.56 140.9 271.78l-41.2 58.44a58.94 58.94 0 0 0-5.27 58.87z" fill="none"/>
        </clipPath>
    </defs>
    <g data-name="Layer 7">
        <g clip-path="url(#a)">
            <path fill="#ffafa1" d="M473.1-797.45L337.29-76.51l289.5 298.3v-975.45L473.1-797.45z"/>
        </g>
        <path d="M13.78 644l-2.16-5.53a23.2 23.2 0 0 1 2.16 5.53z" fill="#ffafa1"/>
        <path d="M1235.3 406.07v7.36c0 167.3-135.62 302.92-302.91 302.92H447.26l-53-218.06 443.43-5.76-34.83-119.68a117.92 117.92 0 0 0-17-35.17l-13.39-19a65.56 65.56 0 0 1-12-37.82c0-1.6.06-3.22.18-4.82s.17-2.95.17-4.43a59.59 59.59 0 0 0-10.24-33.39 341.39 341.39 0 0 1-49.06-111.48 19.12 19.12 0 0 1 18.6-23.59h212.27c167.29.01 302.91 135.63 302.91 302.92z" fill="#47b274"/>
        <path d="M473.37 717.78h-24.94l-1.17-4.4a78.85 78.85 0 0 0 26.11 4.4zM299.75 412.72q-11.34 6.06-22.21 12.72l-3.73-14z"/>
        <path d="M864 717.78H417.1a79.81 79.81 0 0 1-77.1-59.13l-44.3-165.47a366.52 366.52 0 0 1 132.88-57.11C626.57 394.19 821.07 520.23 864 717.78zm591.82 0h-268.15l-5.34-15.59c-.24-.74-.51-1.46-.8-2.17-10.84-27.4-45-36.9-69.24-20.2l-13.89 9.54a161.56 161.56 0 0 1-89.11 28.42H931.9c-.72-4-1.49-8-2.34-12a432.85 432.85 0 0 0-184.68-271.86l81.45 3.89a289.42 289.42 0 0 0 39.72-.83l327.47-29.47A188.09 188.09 0 0 1 1387 530.08zM422.61 411.48h-148.8L191.2 103.16H340l82.61 308.32z"/>
        <path d="M1027.12 521.65H365.64l-99-328.56h629.47c72.24 0 131 58.77 131 131zm-621.48-60.48h561V324.1a70.53 70.53 0 0 0-70.53-70.53H373.78A18.37 18.37 0 0 0 356 276.71z"/>
        <path d="M1004.15 690C945.77 414.18 674.84 237.9 399 296.26 185.41 341.47 31.5 514.09 0 717.78h77.36c30.72-168.17 159.82-309.34 337.42-346.93 234.64-49.65 465.12 100.31 514.78 335q1.28 6 2.36 12h77.31q-2.13-13.93-5.08-27.85z"/>
        <path d="M929.56 705.81c-49.66-234.65-280.14-384.61-514.78-335-177.6 37.59-306.7 178.76-337.42 346.93h68c29.82-137 137.15-250.79 283.26-281.71 198-41.88 392.53 84.19 435.38 281.77h68c-.81-3.95-1.59-8-2.44-11.99z" fill="#fff"/>
        <path d="M376.8 487.59a21.78 21.78 0 0 1-19.43 22.89 21.47 21.47 0 0 1-5.56-.16 6.63 6.63 0 0 0-7.4 4.1 21.57 21.57 0 0 1-23.79 13.93 6.61 6.61 0 0 0-7.33 4.12 21.57 21.57 0 0 1-17.69 14.07 21.87 21.87 0 0 1-6.11-.11 6.68 6.68 0 0 0-7.4 4.27 21.58 21.58 0 0 1-18.14 14c-8.17.81-15.21-3.72-20.46-9.56-4.61-5.12-12.94-14.69-12.94-14.69a137.65 137.65 0 0 1-29.41-45.59l-41.35-105.21 93.31-55.44 2.6 9.69c2.89 10.79 10.48 21.53 22.16 22l41.52 2.17a28.07 28.07 0 0 1 19.19 9l11.67 12.65c-8.54 3.23-12.13 4.73-20.37 8.47l44.12 80c.32.57.61 1.14.89 1.73a22 22 0 0 1 1.92 7.67z" fill="#ffd7e4"/>
        <path fill="#fff" d="M191.19 103.16l61.91 231.05-93.31 55.44L13.78 103.16h177.41z"/>
    </g>
</svg>
